<svg xmlns="http://www.w3.org/2000/svg" viewBox="0 0 640 640"><!--!Font Awesome Pro 7.1.0 by @fontawesome - https://fontawesome.com License - https://fontawesome.com/license (Commercial License) Copyright 2025 Fonticons, Inc.--><path opacity=".5" fill="#d4a574" d="M80 184C160 229.3 240 274.7 320 320C350.1 302.9 380.2 285.9 410.3 268.8L169.5 133.3L80 184zM251.8 86.6L492.7 222.1C515.1 209.4 537.6 196.7 560 184L351.5 65.9C332 54.8 308 54.8 288.4 65.9L251.8 86.6z"/><path fill="#d4a574" d="M439.8 383.6C429.1 389.6 416 381.9 416 369.7L416 272.1L410.3 268.9L320 320.1L80 184.1L80 417.7C80 440.8 92.5 462.1 112.6 473.5L288.6 572.5C308.1 583.5 331.9 583.5 351.4 572.5L527.4 473.5C547.5 462 560 440.7 560 417.6L560 184L492.7 222.1L496 224L496 333.3C496 344.9 489.8 355.5 479.7 361.2L439.9 383.6z"/></svg>