<svg xmlns="http://www.w3.org/2000/svg" viewBox="0 0 640 640"><!--!Font Awesome Pro 7.1.0 by @fontawesome - https://fontawesome.com License - https://fontawesome.com/license (Commercial License) Copyright 2025 Fonticons, Inc.--><path opacity="0.8" fill="#d4a574" d="M0 488C0 536.6 39.4 576 88 576C113.2 576 136 565.4 152 548.4C168 565.4 190.8 576 216 576C256.3 576 290.2 548.9 300.7 512C302.9 504.4 304 496.3 304 488C304 439.4 264.6 400 216 400C190.8 400 168 410.6 152 427.6C136 410.6 113.2 400 88 400C39.4 400 0 439.4 0 488zM128 488C128 510.1 110.1 528 88 528C65.9 528 48 510.1 48 488C48 465.9 65.9 448 88 448C110.1 448 128 465.9 128 488zM256 488C256 510.1 238.1 528 216 528C193.9 528 176 510.1 176 488C176 465.9 193.9 448 216 448C238.1 448 256 465.9 256 488zM432 488C432 496.3 433.2 504.4 435.3 512C445.7 548.9 479.7 576 520 576C563 576 598.9 545.1 606.5 504.3C607.5 499 608 493.6 608 488C608 439.4 568.6 400 520 400C471.4 400 432 439.4 432 488zM560 488C560 510.1 542.1 528 520 528C497.9 528 480 510.1 480 488C480 465.9 497.9 448 520 448C542.1 448 560 465.9 560 488z"/><path fill="#2c333f" d="M0 160C0 124.7 28.7 96 64 96L416 96C451.3 96 480 124.7 480 160L480 192L530.7 192C547.7 192 564 198.7 576 210.7L621.3 256C633.3 268 640 284.3 640 301.3L640 448C640 472.3 626.5 493.4 606.5 504.3C607.5 499 608 493.6 608 488C608 439.4 568.6 400 520 400C471.4 400 432 439.4 432 488C432 496.3 433.2 504.4 435.3 512L300.7 512C302.9 504.4 304 496.3 304 488C304 439.4 264.6 400 216 400C190.8 400 168 410.6 152 427.6C136 410.6 113.2 400 88 400C39.4 400 0 439.4 0 488L0 160zM576 352L576 301.3L530.7 256L480 256L480 352L576 352z"/></svg>
